<svg xmlns="http://www.w3.org/2000/svg" xmlns:xlink="http://www.w3.org/1999/xlink" width="500" zoomAndPan="magnify" viewBox="0 0 375 374.999991" height="500" preserveAspectRatio="xMidYMid meet" version="1.0"><defs><clipPath id="fbb4760d19"><path d="M 93 86.175781 L 288.675781 86.175781 L 288.675781 281 L 93 281 Z M 93 86.175781 " clip-rule="nonzero"/></clipPath><clipPath id="5381f70d0f"><path d="M 134.242188 165.277344 L 219.742188 165.277344 L 219.742188 181.777344 L 134.242188 181.777344 Z M 134.242188 165.277344 " clip-rule="nonzero"/></clipPath></defs><g clip-path="url(#fbb4760d19)"><path fill="#3998ff" d="M 288.542969 183.589844 C 288.542969 185.183594 288.503906 186.773438 288.425781 188.367188 C 288.347656 189.957031 288.230469 191.546875 288.074219 193.132812 C 287.917969 194.71875 287.722656 196.300781 287.492188 197.875 C 287.257812 199.453125 286.984375 201.019531 286.675781 202.585938 C 286.363281 204.148438 286.015625 205.703125 285.628906 207.246094 C 285.242188 208.792969 284.816406 210.328125 284.355469 211.851562 C 283.890625 213.378906 283.390625 214.890625 282.855469 216.390625 C 282.320312 217.890625 281.746094 219.378906 281.136719 220.851562 C 280.527344 222.320312 279.882812 223.777344 279.199219 225.21875 C 278.519531 226.660156 277.804688 228.082031 277.050781 229.488281 C 276.300781 230.894531 275.515625 232.277344 274.695312 233.644531 C 273.878906 235.011719 273.027344 236.359375 272.140625 237.683594 C 271.253906 239.007812 270.339844 240.3125 269.390625 241.589844 C 268.441406 242.871094 267.460938 244.125 266.449219 245.359375 C 265.4375 246.589844 264.398438 247.796875 263.328125 248.976562 C 262.257812 250.160156 261.160156 251.3125 260.035156 252.4375 C 258.90625 253.566406 257.753906 254.664062 256.574219 255.734375 C 255.390625 256.804688 254.1875 257.84375 252.953125 258.855469 C 251.722656 259.867188 250.46875 260.847656 249.1875 261.796875 C 247.90625 262.746094 246.605469 263.664062 245.28125 264.546875 C 243.957031 265.433594 242.609375 266.285156 241.242188 267.105469 C 239.875 267.925781 238.492188 268.710938 237.085938 269.460938 C 235.679688 270.210938 234.257812 270.929688 232.816406 271.609375 C 231.375 272.292969 229.921875 272.9375 228.449219 273.546875 C 226.976562 274.15625 225.488281 274.730469 223.988281 275.269531 C 222.488281 275.804688 220.976562 276.304688 219.453125 276.765625 C 217.925781 277.230469 216.390625 277.65625 214.847656 278.042969 C 213.300781 278.429688 211.746094 278.777344 210.183594 279.089844 C 208.621094 279.398438 207.050781 279.671875 205.476562 279.90625 C 203.898438 280.140625 202.316406 280.335938 200.730469 280.492188 C 199.144531 280.648438 197.558594 280.765625 195.964844 280.84375 C 194.375 280.921875 192.78125 280.960938 191.1875 280.960938 C 189.59375 280.960938 188.003906 280.921875 186.410156 280.84375 C 184.820312 280.765625 183.230469 280.648438 181.644531 280.492188 C 180.058594 280.335938 178.480469 280.140625 176.902344 279.90625 C 175.328125 279.675781 173.757812 279.402344 172.195312 279.089844 C 170.632812 278.78125 169.078125 278.429688 167.53125 278.042969 C 165.984375 277.65625 164.449219 277.230469 162.925781 276.769531 C 161.402344 276.308594 159.886719 275.808594 158.386719 275.269531 C 156.886719 274.734375 155.402344 274.160156 153.929688 273.550781 C 152.457031 272.941406 151 272.296875 149.558594 271.613281 C 148.121094 270.933594 146.695312 270.214844 145.292969 269.464844 C 143.886719 268.714844 142.5 267.929688 141.132812 267.109375 C 139.765625 266.289062 138.421875 265.4375 137.097656 264.554688 C 135.769531 263.667969 134.46875 262.75 133.1875 261.800781 C 131.910156 260.851562 130.652344 259.871094 129.421875 258.863281 C 128.191406 257.851562 126.984375 256.808594 125.800781 255.742188 C 124.621094 254.671875 123.46875 253.570312 122.339844 252.445312 C 121.214844 251.316406 120.117188 250.164062 119.046875 248.984375 C 117.976562 247.804688 116.9375 246.597656 115.925781 245.367188 C 114.914062 244.132812 113.933594 242.878906 112.984375 241.597656 C 112.035156 240.316406 111.117188 239.015625 110.234375 237.691406 C 109.347656 236.367188 108.496094 235.019531 107.675781 233.652344 C 106.859375 232.285156 106.074219 230.902344 105.320312 229.496094 C 104.570312 228.089844 103.855469 226.667969 103.171875 225.226562 C 102.492188 223.785156 101.847656 222.328125 101.234375 220.859375 C 100.625 219.386719 100.054688 217.898438 99.515625 216.398438 C 98.980469 214.898438 98.480469 213.386719 98.015625 211.859375 C 97.554688 210.335938 97.128906 208.800781 96.742188 207.253906 C 96.355469 205.710938 96.007812 204.15625 95.695312 202.59375 C 95.386719 201.03125 95.113281 199.460938 94.878906 197.882812 C 94.644531 196.308594 94.449219 194.726562 94.292969 193.140625 C 94.136719 191.554688 94.019531 189.964844 93.941406 188.375 C 93.863281 186.785156 93.824219 185.191406 93.828125 183.597656 C 93.828125 182.003906 93.867188 180.410156 93.945312 178.820312 C 94.023438 177.230469 94.140625 175.640625 94.296875 174.054688 C 94.453125 172.46875 94.648438 170.886719 94.878906 169.3125 C 95.113281 167.734375 95.386719 166.164062 95.699219 164.601562 C 96.007812 163.039062 96.359375 161.484375 96.746094 159.941406 C 97.132812 158.394531 97.558594 156.859375 98.019531 155.335938 C 98.484375 153.808594 98.984375 152.296875 99.519531 150.796875 C 100.058594 149.296875 100.628906 147.808594 101.238281 146.339844 C 101.851562 144.867188 102.496094 143.410156 103.175781 141.96875 C 103.859375 140.527344 104.574219 139.105469 105.324219 137.703125 C 106.078125 136.296875 106.863281 134.910156 107.683594 133.542969 C 108.5 132.175781 109.351562 130.832031 110.238281 129.507812 C 111.125 128.179688 112.042969 126.878906 112.992188 125.597656 C 113.941406 124.320312 114.921875 123.0625 115.929688 121.832031 C 116.941406 120.601562 117.984375 119.394531 119.054688 118.214844 C 120.125 117.035156 121.222656 115.878906 122.347656 114.753906 C 123.476562 113.625 124.628906 112.527344 125.808594 111.457031 C 126.992188 110.386719 128.195312 109.347656 129.429688 108.335938 C 130.660156 107.328125 131.917969 106.347656 133.195312 105.398438 C 134.476562 104.449219 135.777344 103.53125 137.105469 102.644531 C 138.429688 101.761719 139.773438 100.910156 141.140625 100.089844 C 142.507812 99.269531 143.894531 98.484375 145.300781 97.734375 C 146.707031 96.984375 148.128906 96.269531 149.570312 95.585938 C 151.007812 94.90625 152.464844 94.261719 153.9375 93.652344 C 155.410156 93.042969 156.898438 92.46875 158.398438 91.929688 C 159.898438 91.394531 161.410156 90.894531 162.933594 90.433594 C 164.460938 89.96875 165.996094 89.546875 167.539062 89.160156 C 169.085938 88.773438 170.640625 88.421875 172.203125 88.113281 C 173.765625 87.800781 175.335938 87.53125 176.914062 87.296875 C 178.488281 87.0625 180.070312 86.867188 181.65625 86.710938 C 183.242188 86.554688 184.828125 86.4375 186.421875 86.359375 C 188.011719 86.28125 189.605469 86.242188 191.199219 86.246094 C 192.792969 86.238281 194.386719 86.273438 195.980469 86.34375 C 197.574219 86.417969 199.164062 86.53125 200.75 86.679688 C 202.339844 86.832031 203.921875 87.023438 205.5 87.25 C 207.078125 87.480469 208.648438 87.75 210.214844 88.054688 C 211.777344 88.363281 213.335938 88.707031 214.882812 89.09375 C 216.429688 89.476562 217.96875 89.898438 219.496094 90.355469 C 221.023438 90.816406 222.539062 91.3125 224.039062 91.847656 C 225.542969 92.382812 227.03125 92.953125 228.503906 93.558594 C 229.980469 94.167969 231.4375 94.8125 232.882812 95.492188 C 234.324219 96.171875 235.75 96.882812 237.15625 97.632812 C 238.5625 98.382812 239.953125 99.167969 241.320312 99.988281 C 242.6875 100.804688 244.039062 101.65625 245.363281 102.542969 C 246.691406 103.425781 247.996094 104.34375 249.277344 105.292969 C 250.558594 106.242188 251.816406 107.222656 253.046875 108.230469 C 254.28125 109.242188 255.488281 110.285156 256.671875 111.355469 C 257.851562 112.425781 259.007812 113.523438 260.136719 114.652344 C 261.261719 115.78125 262.363281 116.933594 263.433594 118.117188 C 264.503906 119.296875 265.542969 120.507812 266.554688 121.738281 C 267.566406 122.972656 268.546875 124.230469 269.496094 125.511719 C 270.445312 126.792969 271.363281 128.097656 272.246094 129.421875 C 273.132812 130.75 273.984375 132.097656 274.800781 133.46875 C 275.617188 134.835938 276.402344 136.222656 277.152344 137.632812 C 277.902344 139.039062 278.617188 140.464844 279.296875 141.90625 C 279.976562 143.347656 280.621094 144.808594 281.226562 146.28125 C 281.835938 147.757812 282.40625 149.246094 282.941406 150.746094 C 283.472656 152.25 283.972656 153.765625 284.429688 155.292969 C 284.890625 156.820312 285.3125 158.355469 285.695312 159.90625 C 286.078125 161.453125 286.425781 163.007812 286.730469 164.574219 C 287.039062 166.136719 287.304688 167.710938 287.535156 169.289062 C 287.765625 170.867188 287.953125 172.449219 288.105469 174.035156 C 288.257812 175.625 288.371094 177.214844 288.441406 178.808594 C 288.515625 180.402344 288.546875 181.996094 288.542969 183.589844 Z M 288.542969 183.589844 " fill-opacity="1" fill-rule="nonzero"/></g><path fill="#ffffff" d="M 266.292969 245.570312 C 265.144531 246.960938 263.957031 248.320312 262.730469 249.648438 C 261.507812 250.972656 260.246094 252.265625 258.949219 253.523438 C 257.652344 254.777344 256.320312 256 254.957031 257.179688 C 253.589844 258.363281 252.195312 259.507812 250.765625 260.613281 C 249.339844 261.714844 247.878906 262.78125 246.394531 263.804688 C 244.90625 264.828125 243.390625 265.808594 241.847656 266.75 C 240.304688 267.6875 238.738281 268.582031 237.148438 269.4375 C 235.554688 270.289062 233.941406 271.09375 232.304688 271.859375 C 230.667969 272.621094 229.011719 273.335938 227.332031 274.007812 C 225.65625 274.675781 223.960938 275.300781 222.25 275.875 C 220.539062 276.453125 218.8125 276.980469 217.074219 277.460938 C 215.332031 277.941406 213.578125 278.371094 211.816406 278.753906 C 210.050781 279.136719 208.277344 279.46875 206.492188 279.753906 C 204.710938 280.035156 202.917969 280.269531 201.125 280.453125 C 199.328125 280.636719 197.527344 280.773438 195.722656 280.855469 C 193.917969 280.941406 192.113281 280.972656 190.308594 280.957031 C 188.503906 280.941406 186.699219 280.875 184.898438 280.757812 C 183.097656 280.640625 181.296875 280.476562 179.507812 280.257812 C 177.714844 280.042969 175.929688 279.773438 174.148438 279.460938 C 172.371094 279.144531 170.605469 278.777344 168.847656 278.363281 C 167.089844 277.949219 165.34375 277.488281 163.613281 276.976562 C 161.882812 276.464844 160.164062 275.90625 158.464844 275.296875 C 156.765625 274.691406 155.082031 274.035156 153.417969 273.335938 C 151.753906 272.636719 150.109375 271.890625 148.488281 271.097656 C 146.863281 270.304688 145.265625 269.46875 143.6875 268.589844 C 142.113281 267.707031 140.5625 266.785156 139.035156 265.816406 C 137.511719 264.847656 136.015625 263.839844 134.546875 262.789062 C 133.078125 261.738281 131.640625 260.648438 130.230469 259.519531 C 128.824219 258.386719 127.449219 257.21875 126.105469 256.011719 C 124.761719 254.804688 123.453125 253.5625 122.179688 252.28125 C 120.90625 251.003906 119.667969 249.6875 118.46875 248.339844 C 117.265625 246.992188 116.105469 245.609375 114.980469 244.195312 C 125.351562 229.410156 141.429688 219.148438 175.234375 218.761719 C 214.246094 218.292969 242.945312 216.871094 254.800781 229.984375 C 259.113281 234.824219 262.945312 240.015625 266.292969 245.570312 Z M 266.292969 245.570312 " fill-opacity="1" fill-rule="nonzero"/><path fill="#14213d" d="M 158.941406 159.039062 C 140.222656 152.269531 143.277344 127.578125 145.933594 127.046875 C 148.589844 126.515625 154.292969 130.894531 154.558594 131.027344 C 154.828125 131.160156 153.234375 120.007812 156.820312 114.832031 C 160.402344 109.65625 174.078125 120.140625 184.566406 120.273438 C 195.054688 120.40625 220.410156 121.070312 227.84375 127.710938 C 235.277344 134.347656 231.417969 148.550781 231.417969 148.550781 C 231.417969 148.550781 239.925781 150.808594 238.195312 162.757812 C 236.464844 174.707031 223.058594 184.964844 218.28125 193.574219 C 213.5 202.183594 185.113281 203.78125 180.710938 191.300781 " fill-opacity="1" fill-rule="nonzero"/><path fill="#ffb5a6" d="M 189.777344 233.152344 C 176.167969 233.152344 174.164062 221.792969 174.109375 219.871094 C 174.109375 219.652344 174.082031 219.269531 174.109375 218.746094 C 174.082031 217.679688 174.082031 216.03125 174.082031 214.109375 C 174.136719 208.925781 174.191406 201.765625 174.109375 198.691406 L 200.089844 189.390625 L 204.8125 187.6875 L 210.050781 185.824219 C 210.050781 185.824219 210.023438 186.839844 209.96875 188.511719 C 209.941406 189.472656 209.914062 190.652344 209.886719 191.996094 C 209.890625 192.15625 209.882812 192.3125 209.859375 192.464844 C 209.832031 194.414062 209.804688 196.636719 209.75 198.96875 C 209.667969 206.292969 209.640625 214.527344 210.023438 217.488281 C 210.734375 223.246094 203.382812 233.152344 189.777344 233.152344 Z M 189.777344 233.152344 " fill-opacity="1" fill-rule="nonzero"/><path fill="#e86b70" d="M 210.074219 192.050781 C 210.015625 192.195312 209.941406 192.332031 209.855469 192.464844 C 200.636719 211.421875 186.78125 218.941406 174.105469 218.746094 C 174.078125 217.679688 174.078125 216.03125 174.078125 214.109375 C 174.132812 208.925781 174.1875 201.765625 174.105469 198.691406 L 200.089844 189.390625 L 209.886719 191.996094 Z M 210.074219 192.050781 " fill-opacity="1" fill-rule="nonzero"/><path fill="#ffb5a6" d="M 158.425781 142.179688 C 173.5625 160.324219 210.941406 157.046875 210.941406 157.046875 C 210.941406 157.046875 211.648438 178.289062 215.363281 178.113281 C 219.082031 177.933594 219.703125 166.164062 228.816406 168.113281 C 237.933594 170.066406 232.269531 187.675781 225.191406 188.648438 C 218.109375 189.621094 216.339844 183.601562 216.339844 183.601562 C 216.339844 183.601562 203.285156 209.488281 182.574219 209.488281 C 161.863281 209.488281 156.5625 189.636719 156.6875 178.820312 C 156.8125 168.003906 158.425781 142.179688 158.425781 142.179688 Z M 158.425781 142.179688 " fill-opacity="1" fill-rule="nonzero"/><g clip-path="url(#5381f70d0f)"><path fill="#000000" d="M 219.515625 165.277344 L 219.515625 168.386719 L 216.4375 168.386719 L 216.4375 171.910156 L 213.152344 171.910156 L 213.152344 175.226562 L 209.867188 175.226562 L 209.867188 178.457031 L 206.53125 178.457031 L 206.53125 181.773438 L 187.15625 181.773438 L 187.15625 178.457031 L 183.609375 178.457031 L 183.609375 175.226562 L 180.324219 175.226562 L 180.324219 168.386719 L 173.835938 168.386719 L 173.835938 175.226562 L 170.550781 175.226562 L 170.550781 178.242188 L 167.265625 178.242188 L 167.265625 181.773438 L 144.554688 181.773438 L 144.554688 178.457031 L 141.007812 178.457031 L 141.007812 175.226562 L 137.722656 175.226562 L 137.722656 168.863281 L 134.46875 168.863281 L 134.46875 165.277344 L 219.515625 165.277344 " fill-opacity="1" fill-rule="nonzero"/></g><path fill="#ffffff" d="M 198.96875 175.078125 L 195.890625 175.078125 L 195.890625 178.1875 L 198.96875 178.1875 Z M 195.890625 171.972656 L 192.8125 171.972656 L 192.8125 175.078125 L 195.890625 175.078125 Z M 192.8125 175.078125 L 189.734375 175.078125 L 189.734375 178.1875 L 192.8125 178.1875 Z M 192.8125 168.863281 L 189.734375 168.863281 L 189.734375 171.972656 L 192.8125 171.972656 Z M 189.734375 171.972656 L 186.65625 171.972656 L 186.65625 175.078125 L 189.734375 175.078125 Z M 186.65625 168.863281 L 183.578125 168.863281 L 183.578125 171.972656 L 186.65625 171.972656 Z M 156.367188 175.078125 L 153.289062 175.078125 L 153.289062 178.1875 L 156.367188 178.1875 Z M 153.289062 171.972656 L 150.210938 171.972656 L 150.210938 175.078125 L 153.289062 175.078125 Z M 150.210938 175.078125 L 147.132812 175.078125 L 147.132812 178.1875 L 150.210938 178.1875 Z M 156.367188 168.863281 L 153.289062 168.863281 L 153.289062 171.972656 L 156.367188 171.972656 Z M 144.054688 168.863281 L 140.976562 168.863281 L 140.976562 171.972656 L 144.054688 171.972656 Z M 150.210938 168.863281 L 147.132812 168.863281 L 147.132812 171.972656 L 150.210938 171.972656 Z M 147.132812 175.078125 L 144.054688 175.078125 L 144.054688 171.972656 L 147.132812 171.972656 L 147.132812 175.078125 " fill-opacity="1" fill-rule="nonzero"/></svg>