<svg xmlns="http://www.w3.org/2000/svg" xmlns:xlink="http://www.w3.org/1999/xlink" width="500" zoomAndPan="magnify" viewBox="0 0 375 374.999991" height="500" preserveAspectRatio="xMidYMid meet" version="1.0"><defs><g/><clipPath id="71fbde9a8f"><path d="M 250 120 L 315.28125 120 L 315.28125 179 L 250 179 Z M 250 120 " clip-rule="nonzero"/></clipPath><clipPath id="e1f87c3b08"><path d="M 238 77.082031 L 247 77.082031 L 247 87 L 238 87 Z M 238 77.082031 " clip-rule="nonzero"/></clipPath><clipPath id="2e478d678c"><path d="M 59.53125 120 L 125 120 L 125 179 L 59.53125 179 Z M 59.53125 120 " clip-rule="nonzero"/></clipPath><clipPath id="31c0dcdbde"><path d="M 128 77.082031 L 137 77.082031 L 137 87 L 128 87 Z M 128 77.082031 " clip-rule="nonzero"/></clipPath><clipPath id="25b99be91f"><path d="M 141 175 L 234 175 L 234 229.332031 L 141 229.332031 Z M 141 175 " clip-rule="nonzero"/></clipPath></defs><path fill="#b81928" d="M 281.410156 194.097656 C 286.371094 168.433594 275.664062 142.800781 259.21875 128.445312 C 258.148438 127.511719 257.042969 126.625 255.910156 125.78125 C 290.132812 141.730469 300.914062 180.933594 302.851562 186.640625 C 299.679688 183.628906 287.507812 182.496094 281.410156 194.097656 Z M 281.410156 194.097656 " fill-opacity="1" fill-rule="nonzero"/><path fill="#b81928" d="M 270.859375 179.898438 C 264.066406 178.617188 256.425781 181.636719 254.4375 183.058594 C 257.597656 180.597656 259.078125 174.25 261.578125 171.515625 C 262.796875 170.199219 263.851562 168.765625 264.746094 167.210938 C 270.769531 156.664062 267.28125 142.691406 253.984375 127.175781 C 272.554688 140.625 282.402344 164.941406 279 187.699219 C 277.65625 183.96875 275.039062 180.691406 270.859375 179.898438 Z M 270.859375 179.898438 " fill-opacity="1" fill-rule="nonzero"/><g clip-path="url(#71fbde9a8f)"><path fill="#b81928" d="M 298.261719 168.316406 C 290.261719 150.003906 276.714844 134.25 258.890625 124.757812 C 256.144531 123.300781 253.316406 122.019531 250.414062 120.914062 C 255.867188 121.398438 261.214844 122.453125 266.445312 124.078125 C 271.679688 125.699219 276.679688 127.855469 281.457031 130.539062 C 293.558594 137.425781 303.210938 148.203125 309.328125 160.667969 C 312.128906 166.375 314.152344 172.347656 315.398438 178.582031 C 311.214844 173.078125 305.5 169.085938 298.261719 168.316406 Z M 298.261719 168.316406 " fill-opacity="1" fill-rule="nonzero"/></g><path fill="#b81928" d="M 267.523438 202.328125 C 264.863281 199.457031 258.515625 201.308594 256.925781 200.363281 C 253.527344 198.335938 252.585938 195.65625 247.128906 194.507812 C 245.515625 194.210938 243.902344 194.230469 242.296875 194.5625 C 243.015625 193.714844 244.386719 192.75 247.039062 192.574219 C 248.066406 192.507812 249.082031 192.597656 250.082031 192.847656 C 250.503906 192.953125 250.914062 193.09375 251.3125 193.265625 C 253.847656 190.757812 255.960938 187.933594 257.65625 184.792969 C 259.355469 181.65625 260.558594 178.339844 261.273438 174.847656 C 262.203125 170.585938 261.589844 162.054688 256.175781 155.820312 C 259.464844 155.230469 262.65625 155.566406 265.753906 156.828125 C 262.355469 153.082031 255.429688 153.359375 254.144531 149.65625 C 252.953125 146.230469 255.277344 143.429688 258.832031 141.332031 C 254.195312 141.332031 250.207031 145.496094 247.335938 143.378906 C 244.640625 141.390625 248.898438 134.765625 250.691406 132.160156 C 247.355469 133.054688 244.136719 138.75 241.980469 136.835938 C 238.632812 133.871094 242.34375 128.292969 248.210938 118.519531 C 243.566406 121.042969 236.363281 132.238281 234.488281 137.449219 C 234.417969 135.949219 234.605469 134.484375 235.054688 133.054688 C 234.820312 129.941406 235.148438 126.886719 236.027344 123.890625 C 234.179688 125.746094 232.699219 127.859375 231.582031 130.230469 C 230.46875 132.601562 229.785156 135.089844 229.535156 137.699219 C 229.285156 140.378906 228.328125 142.773438 226.664062 144.890625 C 226.097656 145.597656 225.6875 146.078125 225.6875 146.078125 C 225.6875 146.078125 225.523438 150.722656 222.351562 153.8125 C 219.726562 156.367188 215.675781 156.992188 214.617188 151.550781 C 212.742188 157.816406 214.695312 165.230469 222.675781 169.382812 C 221.414062 166.816406 223.042969 163.558594 223.976562 162.625 C 223.976562 164.660156 224.472656 165.921875 225.851562 166.449219 C 225.851562 164.414062 226.464844 162.664062 227.320312 161.917969 C 227.523438 162.898438 228.582031 163.589844 229.585938 163.792969 C 229.019531 161.1875 231.566406 157.640625 233.089844 156.097656 C 235.285156 153.832031 239.195312 154.265625 239.679688 156.464844 C 240.65625 160.847656 236.753906 165.824219 227.875 167.222656 C 228.441406 168.808594 230.886719 169.75 230.886719 169.75 C 228.84375 170.550781 226.730469 170.902344 224.539062 170.800781 C 225.921875 173.816406 231.214844 177.847656 238.214844 176.175781 C 235.898438 174.753906 234.691406 172.019531 236.179688 169.992188 C 237.972656 167.546875 242.167969 170.722656 245.132812 169.992188 C 242.652344 168.15625 241.664062 165.738281 244.324219 162.257812 C 246.140625 159.875 249.734375 157.519531 253.953125 156.355469 C 249.875 158.421875 247.253906 161.894531 246.023438 163.53125 C 245.5625 164.101562 245.214844 164.738281 244.980469 165.433594 C 245.644531 166.917969 246.03125 168.472656 246.140625 170.097656 C 246.25 171.722656 246.074219 173.3125 245.617188 174.875 C 243.628906 181.761719 237.6875 186.535156 231.242188 189.761719 C 227.210938 197.265625 222.273438 204.121094 216.433594 210.324219 C 227.195312 207.429688 235.921875 204.054688 242.8125 199.832031 C 248.792969 197.355469 251.617188 202.949219 249.773438 204.15625 C 250.773438 204.542969 255.671875 204.53125 253.953125 210.984375 C 254.457031 211.042969 259.460938 210.296875 256.917969 204.910156 C 258.617188 205.128906 262.445312 207.175781 259.664062 211.707031 C 261.929688 212.175781 264.421875 209.484375 264.523438 205.894531 C 265.492188 206.03125 267.175781 208.382812 265.179688 211.558594 C 267.132812 212.417969 272.164062 207.339844 267.523438 202.328125 Z M 229.625 150.707031 C 230.128906 149.765625 230.585938 148.800781 230.988281 147.8125 C 231.160156 147.367188 231.421875 146.988281 231.777344 146.675781 C 232.132812 146.359375 232.542969 146.144531 233.003906 146.035156 C 234.953125 145.558594 237.457031 144.808594 239.652344 144.0625 C 235.457031 146.179688 233.578125 148.863281 229.625 150.707031 Z M 229.625 150.707031 " fill-opacity="1" fill-rule="nonzero"/><g clip-path="url(#e1f87c3b08)"><path fill="#808184" d="M 239.175781 79.292969 C 239.007812 79.515625 238.859375 79.753906 238.734375 80.003906 C 238.609375 80.257812 238.511719 80.519531 238.441406 80.792969 C 238.367188 81.0625 238.320312 81.339844 238.304688 81.621094 C 238.285156 81.902344 238.296875 82.179688 238.332031 82.460938 C 238.371094 82.738281 238.433594 83.011719 238.523438 83.277344 C 238.617188 83.542969 238.730469 83.796875 238.871094 84.042969 C 239.011719 84.285156 239.175781 84.511719 239.363281 84.722656 C 239.546875 84.933594 239.753906 85.125 239.976562 85.296875 C 240.199219 85.464844 240.4375 85.613281 240.691406 85.738281 C 240.945312 85.863281 241.207031 85.960938 241.476562 86.03125 C 241.75 86.105469 242.027344 86.148438 242.304688 86.167969 C 242.585938 86.183594 242.867188 86.175781 243.144531 86.136719 C 243.425781 86.101562 243.695312 86.035156 243.964844 85.945312 C 244.230469 85.851562 244.484375 85.738281 244.726562 85.597656 C 244.96875 85.453125 245.199219 85.289062 245.410156 85.105469 C 245.621094 84.917969 245.808594 84.714844 245.980469 84.488281 C 246.152344 84.265625 246.296875 84.027344 246.421875 83.777344 C 246.546875 83.523438 246.644531 83.261719 246.714844 82.988281 C 246.785156 82.714844 246.832031 82.441406 246.847656 82.160156 C 246.867188 81.878906 246.855469 81.597656 246.820312 81.320312 C 246.78125 81.042969 246.714844 80.769531 246.625 80.503906 C 246.535156 80.238281 246.417969 79.984375 246.277344 79.738281 C 246.132812 79.496094 245.96875 79.269531 245.785156 79.058594 C 245.597656 78.847656 245.390625 78.65625 245.167969 78.488281 C 244.945312 78.316406 244.707031 78.171875 244.457031 78.046875 C 244.203125 77.925781 243.941406 77.828125 243.671875 77.753906 C 243.398438 77.683594 243.125 77.640625 242.84375 77.621094 C 242.5625 77.605469 242.285156 77.613281 242.007812 77.652344 C 241.730469 77.6875 241.457031 77.753906 241.191406 77.84375 C 240.925781 77.933594 240.671875 78.050781 240.429688 78.191406 C 240.1875 78.332031 239.960938 78.492188 239.75 78.679688 C 239.539062 78.863281 239.347656 79.070312 239.175781 79.292969 Z M 239.175781 79.292969 " fill-opacity="1" fill-rule="nonzero"/></g><path fill="#808184" d="M 227.058594 101.007812 C 226.253906 100.398438 225.4375 99.796875 224.625 99.203125 L 237.082031 84.445312 C 237.503906 85.351562 238.113281 86.105469 238.910156 86.710938 C 239.707031 87.320312 240.601562 87.707031 241.589844 87.875 L 230.59375 103.804688 C 229.4375 102.855469 228.257812 101.921875 227.058594 101.007812 Z M 227.058594 101.007812 " fill-opacity="1" fill-rule="nonzero"/><path fill="#808184" d="M 232.097656 118.660156 C 231.871094 118.480469 231.660156 118.285156 231.46875 118.066406 C 231.277344 117.847656 231.109375 117.609375 230.96875 117.359375 C 230.824219 117.109375 230.707031 116.84375 230.613281 116.570312 C 230.519531 116.292969 230.457031 116.011719 230.421875 115.726562 C 230.382812 115.4375 230.375 115.148438 230.394531 114.859375 C 230.417969 114.570312 230.464844 114.285156 230.542969 114.003906 C 230.617188 113.726562 230.71875 113.457031 230.851562 113.195312 C 230.980469 112.9375 231.132812 112.691406 231.3125 112.464844 C 231.539062 112.179688 231.796875 111.925781 232.082031 111.699219 C 231.386719 111.867188 230.773438 112.1875 230.234375 112.65625 C 229.511719 112.023438 228.777344 111.394531 228.039062 110.769531 L 224.414062 116.21875 L 219.125 113.75 C 219.730469 112.667969 220.324219 111.59375 220.914062 110.511719 C 219.964844 111.417969 219.007812 112.328125 218.054688 113.25 L 212.546875 110.6875 L 218.699219 103.640625 C 217.855469 103.074219 217 102.507812 216.152344 101.941406 C 216.492188 101.285156 216.65625 100.585938 216.644531 99.847656 C 216.515625 100.152344 216.355469 100.4375 216.160156 100.703125 C 215.96875 100.972656 215.746094 101.214844 215.5 101.433594 C 215.253906 101.652344 214.984375 101.839844 214.695312 102 C 214.40625 102.15625 214.101562 102.28125 213.785156 102.371094 C 213.46875 102.464844 213.144531 102.519531 212.816406 102.539062 C 212.484375 102.554688 212.160156 102.539062 211.832031 102.484375 C 211.507812 102.429688 211.191406 102.339844 210.886719 102.214844 C 210.582031 102.089844 210.292969 101.933594 210.023438 101.746094 C 209.75 101.558594 209.503906 101.339844 209.28125 101.097656 C 209.058594 100.855469 208.867188 100.589844 208.703125 100.300781 C 208.539062 100.015625 208.410156 99.714844 208.316406 99.398438 C 208.21875 99.082031 208.15625 98.761719 208.132812 98.429688 C 208.109375 98.101562 208.121094 97.773438 208.171875 97.449219 C 208.21875 97.121094 208.304688 96.804688 208.421875 96.496094 C 208.542969 96.191406 208.695312 95.898438 208.878906 95.625 C 209.0625 95.351562 209.273438 95.101562 209.515625 94.875 C 209.753906 94.648438 210.015625 94.453125 210.300781 94.285156 C 210.585938 94.117188 210.882812 93.980469 211.199219 93.878906 C 211.511719 93.777344 211.832031 93.710938 212.160156 93.683594 C 212.492188 93.652344 212.816406 93.660156 213.144531 93.703125 C 213.472656 93.746094 213.789062 93.824219 214.101562 93.941406 C 214.410156 94.054688 214.703125 94.203125 214.980469 94.382812 C 215.257812 94.5625 215.511719 94.769531 215.738281 95.003906 C 215.96875 95.242188 216.171875 95.5 216.34375 95.78125 C 219.84375 97.945312 223.292969 100.3125 226.621094 102.855469 C 229.953125 105.398438 233.253906 108.171875 236.3125 111.003906 C 236.613281 111.113281 236.898438 111.25 237.167969 111.421875 C 237.4375 111.589844 237.6875 111.789062 237.914062 112.011719 C 238.140625 112.238281 238.34375 112.484375 238.515625 112.75 C 238.691406 113.019531 238.835938 113.300781 238.945312 113.601562 C 239.058594 113.898438 239.140625 114.207031 239.183594 114.523438 C 239.230469 114.839844 239.242188 115.15625 239.21875 115.476562 C 239.195312 115.792969 239.140625 116.105469 239.050781 116.414062 C 238.957031 116.71875 238.835938 117.011719 238.683594 117.292969 C 238.527344 117.570312 238.34375 117.832031 238.132812 118.070312 C 237.921875 118.3125 237.691406 118.527344 237.433594 118.714844 C 237.175781 118.90625 236.902344 119.0625 236.609375 119.195312 C 236.316406 119.324219 236.015625 119.421875 235.703125 119.484375 C 235.390625 119.550781 235.074219 119.578125 234.753906 119.574219 C 234.433594 119.570312 234.117188 119.53125 233.808594 119.460938 C 233.496094 119.386719 233.195312 119.28125 232.910156 119.144531 C 232.621094 119.003906 232.351562 118.839844 232.097656 118.640625 Z M 232.097656 118.660156 " fill-opacity="1" fill-rule="nonzero"/><path fill="#808184" d="M 238.378906 205.066406 C 236.113281 206.171875 233.710938 207.210938 231.171875 208.195312 C 233.058594 211.414062 234.894531 214.625 236.679688 217.820312 C 233.804688 215.058594 230.933594 212.226562 228.074219 209.328125 C 225.761719 210.136719 223.335938 210.914062 220.796875 211.648438 L 226.804688 220.667969 L 240.996094 223.726562 L 241.089844 223.851562 L 241.089844 223.746094 L 241.199219 223.746094 L 241.101562 223.621094 L 241.917969 209.140625 Z M 238.378906 205.066406 " fill-opacity="1" fill-rule="nonzero"/><path fill="#808184" d="M 136.617188 205.066406 C 138.882812 206.171875 141.261719 207.207031 143.828125 208.195312 C 141.9375 211.414062 140.101562 214.625 138.316406 217.820312 C 141.191406 215.058594 144.0625 212.226562 146.925781 209.328125 C 149.234375 210.136719 151.660156 210.914062 154.199219 211.648438 L 148.191406 220.667969 L 133.996094 223.726562 L 133.898438 223.851562 L 133.898438 223.746094 L 133.796875 223.746094 L 133.894531 223.621094 L 133.085938 209.121094 Z M 136.617188 205.066406 " fill-opacity="1" fill-rule="nonzero"/><path fill="#b81928" d="M 93.582031 194.097656 C 88.625 168.433594 99.332031 142.800781 115.777344 128.445312 C 116.847656 127.511719 117.953125 126.625 119.085938 125.78125 C 84.863281 141.730469 74.082031 180.933594 72.144531 186.640625 C 75.324219 183.628906 87.488281 182.496094 93.582031 194.097656 Z M 93.582031 194.097656 " fill-opacity="1" fill-rule="nonzero"/><path fill="#b81928" d="M 104.136719 179.898438 C 110.929688 178.617188 118.570312 181.636719 120.558594 183.058594 C 117.398438 180.597656 115.921875 174.25 113.417969 171.515625 C 112.203125 170.199219 111.144531 168.765625 110.25 167.210938 C 104.226562 156.664062 107.710938 142.691406 121.011719 127.175781 C 102.441406 140.625 92.59375 164.941406 96 187.699219 C 97.339844 183.96875 99.957031 180.691406 104.136719 179.898438 Z M 104.136719 179.898438 " fill-opacity="1" fill-rule="nonzero"/><g clip-path="url(#2e478d678c)"><path fill="#b81928" d="M 76.734375 168.316406 C 84.734375 150.003906 98.28125 134.25 116.105469 124.757812 C 118.847656 123.304688 121.664062 122.019531 124.5625 120.914062 C 119.105469 121.398438 113.757812 122.457031 108.527344 124.078125 C 103.292969 125.699219 98.289062 127.855469 93.511719 130.539062 C 81.417969 137.425781 71.761719 148.203125 65.644531 160.667969 C 62.84375 166.378906 60.820312 172.355469 59.574219 178.59375 C 63.78125 173.078125 69.496094 169.085938 76.734375 168.316406 Z M 76.734375 168.316406 " fill-opacity="1" fill-rule="nonzero"/></g><path fill="#b81928" d="M 109.808594 211.523438 C 107.816406 208.371094 109.5 206.019531 110.460938 205.859375 C 110.570312 209.453125 113.03125 212.140625 115.324219 211.664062 C 112.546875 207.136719 116.367188 205.109375 118.070312 204.871094 C 115.53125 210.253906 120.535156 211.003906 121.039062 210.945312 C 119.339844 204.492188 124.210938 204.503906 125.21875 204.117188 C 123.371094 202.910156 126.199219 197.320312 132.179688 199.789062 C 139.0625 204.015625 147.820312 207.390625 158.554688 210.285156 C 152.714844 204.078125 147.777344 197.222656 143.746094 189.714844 C 137.28125 186.488281 131.363281 181.714844 129.375 174.828125 C 128.914062 173.265625 128.738281 171.667969 128.847656 170.039062 C 128.957031 168.414062 129.34375 166.855469 130.007812 165.367188 C 129.777344 164.667969 129.429688 164.035156 128.96875 163.464844 C 127.722656 161.828125 125.097656 158.367188 121.039062 156.289062 C 125.253906 157.421875 128.84375 159.804688 130.667969 162.1875 C 133.328125 165.671875 132.363281 168.089844 129.851562 169.925781 C 132.824219 170.65625 137.019531 167.476562 138.808594 169.925781 C 140.296875 171.953125 139.09375 174.6875 136.777344 176.109375 C 143.777344 177.777344 149.070312 173.746094 150.453125 170.734375 C 148.261719 170.832031 146.144531 170.480469 144.105469 169.675781 C 144.105469 169.675781 146.542969 168.742188 147.109375 167.15625 C 138.238281 165.769531 134.335938 160.789062 135.308594 156.394531 C 135.796875 154.199219 139.703125 153.792969 141.902344 156.027344 C 143.425781 157.574219 145.972656 161.125 145.40625 163.722656 C 146.421875 163.519531 147.480469 162.828125 147.671875 161.851562 C 148.527344 162.625 149.136719 164.375 149.136719 166.378906 C 150.519531 165.851562 151.011719 164.589844 151.011719 162.558594 C 151.945312 163.492188 153.578125 166.746094 152.316406 169.3125 C 160.292969 165.164062 162.246094 157.75 160.375 151.480469 C 159.3125 156.941406 155.277344 156.316406 152.636719 153.746094 C 149.460938 150.652344 149.300781 146.011719 149.300781 146.011719 C 149.300781 146.011719 148.890625 145.53125 148.328125 144.820312 C 146.664062 142.707031 145.707031 140.308594 145.457031 137.628906 C 145.207031 135.023438 144.523438 132.535156 143.40625 130.164062 C 142.292969 127.792969 140.808594 125.679688 138.960938 123.824219 C 139.839844 126.820312 140.164062 129.875 139.9375 132.984375 C 140.386719 134.417969 140.574219 135.882812 140.503906 137.378906 C 138.628906 132.171875 131.441406 120.957031 126.78125 118.449219 C 132.648438 128.222656 136.355469 133.800781 133.011719 136.769531 C 130.851562 138.683594 127.636719 132.984375 124.300781 132.085938 C 126.089844 134.695312 130.347656 141.320312 127.652344 143.308594 C 124.78125 145.425781 120.796875 141.265625 116.15625 141.265625 C 119.695312 143.34375 122.035156 146.164062 120.847656 149.589844 C 119.5625 153.292969 112.617188 152.988281 109.238281 156.757812 C 112.332031 155.5 115.523438 155.164062 118.8125 155.75 C 113.417969 161.980469 112.804688 170.519531 113.71875 174.777344 C 114.429688 178.273438 115.636719 181.589844 117.332031 184.726562 C 119.03125 187.863281 121.144531 190.6875 123.679688 193.199219 C 124.078125 193.023438 124.484375 192.886719 124.90625 192.78125 C 125.910156 192.527344 126.921875 192.4375 127.953125 192.507812 C 130.605469 192.683594 131.972656 193.640625 132.695312 194.496094 C 131.085938 194.160156 129.472656 194.144531 127.855469 194.4375 C 122.402344 195.570312 121.488281 198.265625 118.066406 200.292969 C 116.476562 201.242188 110.136719 199.386719 107.464844 202.257812 C 102.832031 207.339844 107.863281 212.417969 109.808594 211.523438 Z M 135.34375 144.046875 C 137.539062 144.792969 140.042969 145.539062 141.992188 146.015625 C 142.453125 146.128906 142.863281 146.339844 143.21875 146.65625 C 143.574219 146.96875 143.835938 147.351562 144.003906 147.792969 C 144.410156 148.789062 144.867188 149.757812 145.371094 150.707031 C 141.417969 148.863281 139.539062 146.179688 135.34375 144.046875 Z M 135.34375 144.046875 " fill-opacity="1" fill-rule="nonzero"/><g clip-path="url(#31c0dcdbde)"><path fill="#808184" d="M 132.980469 77.632812 C 133.261719 77.667969 133.53125 77.734375 133.796875 77.824219 C 134.0625 77.917969 134.316406 78.03125 134.558594 78.171875 C 134.800781 78.316406 135.027344 78.476562 135.238281 78.664062 C 135.449219 78.851562 135.640625 79.054688 135.808594 79.277344 C 135.980469 79.5 136.128906 79.738281 136.25 79.992188 C 136.375 80.242188 136.472656 80.503906 136.542969 80.777344 C 136.613281 81.046875 136.660156 81.324219 136.675781 81.605469 C 136.695312 81.882812 136.683594 82.164062 136.644531 82.441406 C 136.609375 82.71875 136.542969 82.992188 136.453125 83.257812 C 136.363281 83.523438 136.246094 83.777344 136.105469 84.019531 C 135.964844 84.261719 135.800781 84.488281 135.613281 84.699219 C 135.429688 84.910156 135.222656 85.097656 135 85.269531 C 134.777344 85.441406 134.539062 85.585938 134.285156 85.710938 C 134.035156 85.832031 133.773438 85.929688 133.5 86.003906 C 133.230469 86.074219 132.953125 86.117188 132.675781 86.136719 C 132.394531 86.152344 132.113281 86.144531 131.835938 86.105469 C 131.558594 86.066406 131.285156 86.003906 131.019531 85.914062 C 130.753906 85.820312 130.5 85.703125 130.257812 85.5625 C 130.015625 85.421875 129.789062 85.257812 129.578125 85.074219 C 129.367188 84.886719 129.179688 84.683594 129.007812 84.460938 C 128.839844 84.234375 128.691406 84 128.566406 83.746094 C 128.445312 83.492188 128.347656 83.230469 128.277344 82.960938 C 128.203125 82.6875 128.160156 82.414062 128.140625 82.132812 C 128.125 81.851562 128.136719 81.574219 128.171875 81.296875 C 128.210938 81.019531 128.273438 80.746094 128.367188 80.480469 C 128.457031 80.214844 128.574219 79.960938 128.714844 79.71875 C 128.855469 79.476562 129.019531 79.25 129.203125 79.039062 C 129.390625 78.828125 129.59375 78.636719 129.820312 78.46875 C 130.042969 78.296875 130.28125 78.152344 130.53125 78.027344 C 130.785156 77.902344 131.046875 77.808594 131.316406 77.734375 C 131.589844 77.664062 131.863281 77.617188 132.144531 77.601562 C 132.425781 77.585938 132.703125 77.59375 132.980469 77.632812 Z M 132.980469 77.632812 " fill-opacity="1" fill-rule="nonzero"/></g><path fill="#808184" d="M 147.914062 101.007812 C 148.71875 100.398438 149.535156 99.789062 150.351562 99.203125 L 137.890625 84.445312 C 137.464844 85.355469 136.851562 86.113281 136.050781 86.722656 C 135.25 87.328125 134.355469 87.714844 133.363281 87.875 L 144.402344 103.804688 C 145.558594 102.855469 146.730469 101.921875 147.914062 101.007812 Z M 147.914062 101.007812 " fill-opacity="1" fill-rule="nonzero"/><path fill="#808184" d="M 142.898438 118.660156 C 143.164062 118.453125 143.402344 118.21875 143.613281 117.960938 C 143.824219 117.699219 144.003906 117.417969 144.152344 117.117188 C 144.300781 116.816406 144.410156 116.5 144.488281 116.171875 C 144.5625 115.847656 144.601562 115.515625 144.601562 115.179688 C 144.601562 114.84375 144.5625 114.511719 144.488281 114.183594 C 144.410156 113.859375 144.300781 113.542969 144.152344 113.242188 C 144.003906 112.941406 143.824219 112.660156 143.613281 112.398438 C 143.402344 112.140625 143.164062 111.90625 142.898438 111.699219 C 143.589844 111.867188 144.207031 112.1875 144.742188 112.65625 C 145.464844 112.023438 146.199219 111.394531 146.941406 110.769531 L 150.566406 116.21875 L 155.855469 113.75 C 155.25 112.667969 154.652344 111.59375 154.066406 110.511719 C 155.015625 111.417969 155.972656 112.328125 156.925781 113.25 L 162.433594 110.6875 L 156.320312 103.640625 C 157.164062 103.074219 158.019531 102.507812 158.867188 101.941406 C 158.527344 101.285156 158.359375 100.585938 158.375 99.847656 C 158.503906 100.152344 158.664062 100.4375 158.859375 100.703125 C 159.050781 100.972656 159.273438 101.214844 159.519531 101.433594 C 159.765625 101.652344 160.035156 101.839844 160.324219 102 C 160.613281 102.15625 160.917969 102.28125 161.234375 102.371094 C 161.550781 102.464844 161.875 102.519531 162.203125 102.539062 C 162.535156 102.554688 162.859375 102.539062 163.1875 102.484375 C 163.511719 102.429688 163.828125 102.339844 164.132812 102.214844 C 164.4375 102.089844 164.726562 101.933594 164.996094 101.746094 C 165.269531 101.558594 165.515625 101.339844 165.738281 101.097656 C 165.960938 100.855469 166.152344 100.589844 166.316406 100.300781 C 166.480469 100.015625 166.609375 99.714844 166.703125 99.398438 C 166.800781 99.082031 166.859375 98.761719 166.886719 98.429688 C 166.910156 98.101562 166.898438 97.773438 166.847656 97.449219 C 166.800781 97.121094 166.714844 96.804688 166.597656 96.496094 C 166.476562 96.191406 166.324219 95.898438 166.140625 95.625 C 165.957031 95.351562 165.746094 95.101562 165.503906 94.875 C 165.265625 94.648438 165.003906 94.453125 164.71875 94.285156 C 164.433594 94.117188 164.136719 93.980469 163.820312 93.878906 C 163.507812 93.777344 163.1875 93.710938 162.859375 93.683594 C 162.527344 93.652344 162.199219 93.660156 161.875 93.703125 C 161.546875 93.746094 161.226562 93.824219 160.917969 93.941406 C 160.609375 94.054688 160.316406 94.203125 160.039062 94.382812 C 159.761719 94.5625 159.507812 94.769531 159.277344 95.003906 C 159.046875 95.242188 158.847656 95.5 158.675781 95.78125 C 155.175781 97.945312 151.726562 100.3125 148.394531 102.855469 C 145.066406 105.398438 141.742188 108.171875 138.683594 111.003906 C 138.382812 111.113281 138.097656 111.25 137.828125 111.421875 C 137.558594 111.589844 137.308594 111.789062 137.082031 112.011719 C 136.855469 112.238281 136.652344 112.484375 136.480469 112.75 C 136.304688 113.019531 136.160156 113.300781 136.050781 113.601562 C 135.9375 113.898438 135.859375 114.207031 135.8125 114.523438 C 135.765625 114.839844 135.753906 115.15625 135.777344 115.476562 C 135.800781 115.792969 135.855469 116.105469 135.949219 116.414062 C 136.039062 116.71875 136.160156 117.011719 136.316406 117.292969 C 136.46875 117.570312 136.652344 117.832031 136.863281 118.070312 C 137.074219 118.3125 137.308594 118.527344 137.5625 118.714844 C 137.820312 118.90625 138.097656 119.0625 138.386719 119.195312 C 138.679688 119.324219 138.980469 119.421875 139.292969 119.484375 C 139.609375 119.550781 139.925781 119.578125 140.242188 119.574219 C 140.5625 119.570312 140.878906 119.53125 141.1875 119.460938 C 141.5 119.386719 141.800781 119.28125 142.085938 119.144531 C 142.375 119.003906 142.644531 118.839844 142.898438 118.640625 Z M 142.898438 118.660156 " fill-opacity="1" fill-rule="nonzero"/><path fill="#b81928" d="M 187.5 102.429688 L 141.765625 123.890625 C 143.714844 126.179688 145.199219 128.742188 146.214844 131.570312 L 187.5 112.199219 L 228.78125 131.570312 C 229.796875 128.738281 231.28125 126.175781 233.230469 123.886719 Z M 187.5 102.429688 " fill-opacity="1" fill-rule="nonzero"/><g clip-path="url(#25b99be91f)"><path fill="#b81928" d="M 225.394531 175.105469 C 223.960938 178.746094 222.296875 182.277344 220.398438 185.695312 C 216.785156 192.25 212.386719 198.226562 207.199219 203.621094 C 202.015625 209.019531 196.222656 213.65625 189.820312 217.53125 L 187.480469 218.9375 L 185.140625 217.53125 C 178.738281 213.65625 172.945312 209.019531 167.761719 203.621094 C 162.578125 198.226562 158.179688 192.25 154.5625 185.695312 C 152.679688 182.273438 151.03125 178.746094 149.613281 175.105469 C 148.453125 176.09375 147.171875 176.878906 145.765625 177.464844 C 144.359375 178.054688 142.898438 178.414062 141.378906 178.542969 C 143.222656 183.335938 145.441406 187.945312 148.042969 192.371094 C 150.644531 196.796875 153.589844 200.980469 156.882812 204.921875 C 160.175781 208.859375 163.765625 212.503906 167.660156 215.851562 C 171.550781 219.199219 175.691406 222.207031 180.078125 224.871094 L 187.5 229.355469 L 194.917969 224.871094 C 199.304688 222.207031 203.445312 219.199219 207.335938 215.851562 C 211.230469 212.503906 214.820312 208.859375 218.113281 204.921875 C 221.40625 200.980469 224.351562 196.796875 226.953125 192.371094 C 229.554688 187.945312 231.773438 183.335938 233.617188 178.542969 C 232.101562 178.410156 230.640625 178.050781 229.238281 177.464844 C 227.835938 176.878906 226.554688 176.09375 225.394531 175.105469 Z M 225.394531 175.105469 " fill-opacity="1" fill-rule="nonzero"/></g><path fill="#808184" d="M 217.566406 168.394531 C 216.15625 172.71875 214.351562 176.875 212.148438 180.855469 C 209.246094 186.121094 205.710938 190.921875 201.546875 195.261719 C 197.382812 199.597656 192.726562 203.324219 187.582031 206.4375 L 187.480469 206.496094 L 187.378906 206.4375 C 182.234375 203.324219 177.582031 199.597656 173.414062 195.261719 C 169.25 190.921875 165.714844 186.121094 162.8125 180.855469 C 160.613281 176.875 158.804688 172.71875 157.394531 168.394531 C 156.441406 169.234375 155.417969 169.980469 154.324219 170.628906 C 155.746094 174.773438 157.515625 178.761719 159.636719 182.597656 C 162.699219 188.144531 166.421875 193.203125 170.8125 197.769531 C 175.203125 202.335938 180.105469 206.257812 185.527344 209.535156 L 187.5 210.726562 L 189.46875 209.535156 C 194.886719 206.257812 199.789062 202.335938 204.175781 197.769531 C 208.5625 193.203125 212.285156 188.148438 215.34375 182.605469 C 217.460938 178.769531 219.230469 174.777344 220.652344 170.632812 C 219.554688 169.984375 218.527344 169.238281 217.566406 168.394531 Z M 217.566406 168.394531 " fill-opacity="1" fill-rule="nonzero"/><path fill="#808184" d="M 187.5 120.421875 L 150.179688 137.925781 L 150.179688 143.019531 C 150.527344 144.5625 151.925781 150.207031 154.082031 152.308594 C 153.882812 150.144531 153.78125 147.964844 153.78125 145.785156 L 153.78125 140.210938 L 187.5 124.429688 L 221.179688 140.234375 L 221.179688 145.808594 C 221.179688 147.988281 221.078125 150.167969 220.878906 152.332031 C 223.039062 150.230469 224.4375 144.582031 224.78125 143.042969 L 224.78125 137.945312 Z M 187.5 120.421875 " fill-opacity="1" fill-rule="nonzero"/><g fill="#be1e2d" fill-opacity="1"><g transform="translate(174.742376, 182.100238)"><g><path d="M 22.953125 -33.390625 L 22.953125 -24.03125 C 22.953125 -23.082031 22.644531 -22.285156 22.03125 -21.640625 C 21.425781 -20.992188 20.664062 -20.582031 19.75 -20.40625 L 19.75 -20.3125 C 20.664062 -20.175781 21.425781 -19.773438 22.03125 -19.109375 C 22.644531 -18.453125 22.953125 -17.648438 22.953125 -16.703125 L 22.953125 -7.328125 C 22.953125 -4.953125 22.320312 -3.132812 21.0625 -1.875 C 19.8125 -0.625 17.984375 0 15.578125 0 L 9.671875 0 C 7.359375 0 5.59375 -0.609375 4.375 -1.828125 C 3.15625 -3.054688 2.546875 -4.820312 2.546875 -7.125 L 2.546875 -8.8125 C 2.546875 -9.488281 2.882812 -9.828125 3.5625 -9.828125 L 8.453125 -9.828125 C 9.128906 -9.828125 9.46875 -9.488281 9.46875 -8.8125 L 9.46875 -6.71875 L 15.171875 -6.71875 C 15.847656 -6.71875 16.1875 -7.054688 16.1875 -7.734375 L 16.1875 -14.96875 C 16.1875 -16.320312 15.507812 -17 14.15625 -17 L 8.140625 -17 C 7.460938 -17 7.125 -17.335938 7.125 -18.015625 L 7.125 -22.703125 C 7.125 -23.378906 7.460938 -23.71875 8.140625 -23.71875 L 14.15625 -23.71875 C 15.507812 -23.71875 16.1875 -24.378906 16.1875 -25.703125 L 16.1875 -32.984375 C 16.1875 -33.660156 15.847656 -34 15.171875 -34 L 9.46875 -34 L 9.46875 -31.921875 C 9.46875 -31.242188 9.128906 -30.90625 8.453125 -30.90625 L 3.5625 -30.90625 C 2.882812 -30.90625 2.546875 -31.242188 2.546875 -31.921875 L 2.546875 -34 C 2.546875 -36.207031 3.15625 -37.878906 4.375 -39.015625 C 5.59375 -40.148438 7.359375 -40.71875 9.671875 -40.71875 L 15.578125 -40.71875 C 17.984375 -40.71875 19.8125 -40.097656 21.0625 -38.859375 C 22.320312 -37.628906 22.953125 -35.804688 22.953125 -33.390625 Z M 22.953125 -33.390625 "/></g></g></g></svg>